<?xml version="1.0" standalone="no"?>
<!DOCTYPE svg PUBLIC "-//W3C//DTD SVG 20010904//EN"
 "http://www.w3.org/TR/2001/REC-SVG-20010904/DTD/svg10.dtd">
<svg version="1.0" xmlns="http://www.w3.org/2000/svg"
 width="800.000000pt" height="333.000000pt" viewBox="0 0 800.000000 333.000000"
 preserveAspectRatio="xMidYMid meet">
<metadata>
Created by potrace 1.16, written by Peter Selinger 2001-2019
</metadata>
<g transform="translate(0.000000,333.000000) scale(0.100000,-0.100000)"
fill="#000000" stroke="none">
<path d="M450 2545 l0 -25 135 0 c74 0 135 -3 135 -7 0 -5 -61 -55 -135 -112
-117 -90 -135 -108 -135 -132 l0 -29 185 0 185 0 0 31 0 30 -130 -3 c-72 -2
-130 0 -130 4 0 3 59 52 130 108 114 89 130 104 130 130 l0 30 -185 0 -185 0
0 -25z"/>
<path d="M5853 2325 c-198 -43 -368 -206 -418 -400 -19 -75 -19 -223 0 -295
46 -175 170 -311 343 -377 82 -31 242 -43 331 -24 82 18 210 83 270 137 l51
46 -67 72 c-37 39 -69 72 -73 74 -3 1 -29 -16 -58 -37 -72 -55 -147 -81 -231
-81 -92 0 -151 22 -217 83 -65 59 -100 122 -113 203 -24 155 51 304 188 371
48 24 68 28 141 28 73 0 93 -4 141 -28 31 -15 77 -45 102 -67 l45 -40 66 79
c36 43 66 84 66 89 0 17 -76 77 -140 111 -122 65 -286 87 -427 56z"/>
<path d="M3342 1778 l3 -543 123 -3 122 -3 0 161 0 160 158 0 c172 0 246 13
317 55 59 34 112 91 143 154 25 52 27 65 27 181 0 107 -3 132 -22 172 -46 99
-142 172 -261 197 -32 7 -165 11 -333 11 l-279 0 2 -542z m578 320 c66 -34 84
-66 88 -151 2 -60 -1 -78 -20 -111 -39 -67 -79 -80 -250 -84 l-148 -3 0 185 0
186 143 0 c128 0 147 -2 187 -22z"/>
<path d="M4602 2183 c-74 -169 -402 -923 -409 -940 -4 -10 24 -13 119 -13
l125 0 45 108 44 107 251 3 c193 2 253 -1 260 -10 6 -7 27 -57 48 -110 l38
-98 129 0 c70 0 128 2 128 5 0 3 -104 248 -231 545 l-231 540 -128 0 -128 0
-60 -137z m191 -135 c3 -7 42 -102 85 -210 l80 -198 -175 0 c-163 0 -175 1
-169 18 36 98 162 402 167 402 4 0 9 -6 12 -12z"/>
<path d="M6620 1775 l0 -545 425 0 425 0 0 100 0 100 -302 2 -303 3 -3 123 -3
122 266 0 265 0 0 100 0 100 -262 2 -263 3 -3 118 -3 117 296 0 295 0 0 100 0
100 -415 0 -415 0 0 -545z"/>
<path d="M1530 2236 c-161 -44 -303 -188 -339 -347 -27 -117 -3 -264 59 -362
167 -263 551 -297 755 -65 55 62 75 100 56 106 -32 11 -90 76 -111 124 -41 96
-5 218 80 276 19 13 36 27 38 31 1 4 -17 35 -41 68 -54 72 -144 135 -234 163
-74 23 -192 26 -263 6z"/>
<path d="M450 2105 l0 -25 185 0 185 0 0 25 0 25 -185 0 -185 0 0 -25z"/>
<path d="M772 1999 c-24 -10 -106 -46 -183 -80 -137 -60 -139 -62 -139 -93 0
-30 4 -34 73 -63 39 -17 123 -54 185 -82 l112 -50 0 32 c-1 28 -6 35 -43 52
l-42 20 -3 92 -3 92 46 20 c39 17 45 24 45 50 0 17 -1 31 -2 30 -2 0 -22 -9
-46 -20z"/>
<path d="M521 1617 c-51 -26 -65 -60 -69 -167 l-4 -100 186 0 186 0 0 25 c0
24 -3 25 -55 25 l-55 0 0 60 c0 76 -24 136 -61 155 -34 18 -95 19 -128 2z
m110 -66 c19 -15 24 -30 27 -85 l4 -67 -78 3 -79 3 1 63 c1 45 6 68 19 82 23
25 75 26 106 1z"/>
<path d="M653 1245 c-14 -10 -30 -41 -42 -80 -11 -36 -25 -74 -31 -85 -12 -22
-49 -27 -68 -8 -16 16 -15 93 2 127 13 25 13 28 -7 40 -18 12 -22 11 -34 -5
-16 -21 -33 -80 -33 -112 0 -35 25 -88 51 -106 13 -9 41 -16 62 -16 52 0 81
31 107 119 22 75 40 94 77 80 41 -15 43 -101 3 -152 -19 -24 -19 -24 4 -46
l24 -22 23 38 c46 74 35 203 -20 233 -29 15 -93 12 -118 -5z"/>
</g>
</svg>
